<svg width="47" height="19" viewBox="0 0 47 19" fill="none" xmlns="http://www.w3.org/2000/svg">
<path d="M0.256 1.2H3.376V15.36H12.16V18H0.256V1.2ZM39.7696 1.2C41.2256 1.2 42.4896 1.44 43.5616 1.92C44.6496 2.4 45.4816 3.088 46.0576 3.984C46.6336 4.88 46.9216 5.944 46.9216 7.176C46.9216 8.392 46.6336 9.456 46.0576 10.368C45.4816 11.264 44.6496 11.952 43.5616 12.432C42.4896 12.912 41.2256 13.152 39.7696 13.152H35.9776V18H32.8576V1.2H39.7696ZM39.6256 10.512C40.9856 10.512 42.0176 10.224 42.7216 9.648C43.4256 9.072 43.7776 8.248 43.7776 7.176C43.7776 6.104 43.4256 5.28 42.7216 4.704C42.0176 4.128 40.9856 3.84 39.6256 3.84H35.9776V10.512H39.6256Z" fill="white"/>
<path d="M25.7905 9.408H28.7425V18H26.1745V17.016C24.9745 17.832 23.4705 18.24 21.6625 18.24C20.1105 18.24 18.6865 17.904 17.3905 17.232C16.0945 16.56 15.0545 15.584 14.2705 14.304C13.5025 13.024 13.1185 11.496 13.1185 9.72C13.1185 8.04 13.5105 6.536 14.2945 5.208C15.0785 3.864 16.1585 2.824 17.5345 2.088C18.9265 1.336 20.4865 0.959999 22.2145 0.959999C23.6225 0.959999 24.9025 1.192 26.0545 1.656C27.2065 2.12 28.1745 2.8 28.9585 3.696L26.9905 5.616C25.7105 4.336 24.1665 3.696 22.3585 3.696C21.1745 3.696 20.1185 3.952 19.1905 4.464C18.2785 4.96 17.5585 5.664 17.0305 6.576C16.5185 7.488 16.2625 8.528 16.2625 9.696C16.2625 10.928 16.5185 11.992 17.0305 12.888C17.5585 13.768 18.2545 14.44 19.1185 14.904C19.9825 15.352 20.9265 15.576 21.9505 15.576C22.6705 15.576 23.3585 15.464 24.0145 15.24C24.6865 15.016 25.2785 14.688 25.7905 14.256V9.408Z" fill="#5B98A6"/>
</svg>
